Oxanium-ExtraLight.ufo
<glyph name="ampersand" format="2">
  <advance width="650"/>
  <unicode hex="0026"/>
  <outline>
    <contour>
      <point x="75" y="143" type="qcurve" smooth="yes"/>
      <point x="75" y="261" type="line" smooth="yes"/>
      <point x="75" y="313"/>
      <point x="108" y="341" type="qcurve" smooth="yes"/>
      <point x="150" y="376" type="line"/>
      <point x="115" y="418" type="line" smooth="yes"/>
      <point x="95" y="442"/>
      <point x="95" y="476" type="qcurve" smooth="yes"/>
      <point x="95" y="547" type="line" smooth="yes"/>
      <point x="95" y="690"/>
      <point x="238" y="690" type="qcurve" smooth="yes"/>
      <point x="432" y="690" type="line"/>
      <point x="460" y="669" type="line"/>
      <point x="460" y="650" type="line"/>
      <point x="233" y="650" type="line" smooth="yes"/>
      <point x="140" y="650"/>
      <point x="140" y="557" type="qcurve" smooth="yes"/>
      <point x="140" y="481" type="line" smooth="yes"/>
      <point x="140" y="388"/>
      <point x="233" y="388" type="qcurve" smooth="yes"/>
      <point x="610" y="388" type="line"/>
      <point x="610" y="348" type="line"/>
      <point x="510" y="348" type="line"/>
      <point x="510" y="0" type="line"/>
      <point x="218" y="0" type="line" smooth="yes"/>
      <point x="75" y="0"/>
    </contour>
    <contour>
      <point x="120" y="133" type="line" smooth="yes"/>
      <point x="120" y="40"/>
      <point x="213" y="40" type="qcurve" smooth="yes"/>
      <point x="465" y="40" type="line"/>
      <point x="465" y="348" type="line"/>
      <point x="213" y="348" type="line" smooth="yes"/>
      <point x="120" y="348"/>
      <point x="120" y="255" type="qcurve" smooth="yes"/>
    </contour>
  </outline>
</glyph>
<glyph name="one" format="2">
  <advance width="578"/>
  <unicode hex="0031"/>
  <outline>
    <contour>
      <point x="99" y="0" type="line"/>
      <point x="99" y="44" type="line"/>
      <point x="281" y="44" type="line"/>
      <point x="281" y="646" type="line"/>
      <point x="140" y="646" type="line"/>
      <point x="140" y="665" type="line"/>
      <point x="172" y="690" type="line"/>
      <point x="329" y="690" type="line"/>
      <point x="329" y="44" type="line"/>
      <point x="495" y="44" type="line"/>
      <point x="495" y="0" type="line"/>
    </contour>
  </outline>
</glyph>
<glyph name="two" format="2">
  <advance width="578"/>
  <unicode hex="0032"/>
  <outline>
    <contour>
      <point x="71" y="0" type="line"/>
      <point x="71" y="201" type="line" smooth="yes"/>
      <point x="71" y="320"/>
      <point x="175" y="341" type="qcurve" smooth="yes"/>
      <point x="392" y="385" type="line" smooth="yes"/>
      <point x="459" y="398"/>
      <point x="459" y="472" type="qcurve" smooth="yes"/>
      <point x="459" y="556" type="line" smooth="yes"/>
      <point x="459" y="646"/>
      <point x="368" y="646" type="qcurve" smooth="yes"/>
      <point x="91" y="646" type="line"/>
      <point x="91" y="665" type="line"/>
      <point x="123" y="690" type="line"/>
      <point x="363" y="690" type="line" smooth="yes"/>
      <point x="507" y="690"/>
      <point x="507" y="546" type="qcurve" smooth="yes"/>
      <point x="507" y="481" type="line" smooth="yes"/>
      <point x="507" y="362"/>
      <point x="403" y="341" type="qcurve" smooth="yes"/>
      <point x="186" y="297" type="line" smooth="yes"/>
      <point x="119" y="284"/>
      <point x="119" y="210" type="qcurve" smooth="yes"/>
      <point x="119" y="44" type="line"/>
      <point x="507" y="44" type="line"/>
      <point x="507" y="0" type="line"/>
    </contour>
  </outline>
</glyph>
<glyph name="seven" format="2">
  <advance width="578"/>
  <unicode hex="0037"/>
  <outline>
    <contour>
      <point x="71" y="646" type="line"/>
      <point x="71" y="690" type="line"/>
      <point x="507" y="690" type="line"/>
      <point x="507" y="539" type="line"/>
      <point x="224" y="0" type="line"/>
      <point x="182" y="0" type="line"/>
      <point x="174" y="14" type="line"/>
      <point x="459" y="551" type="line"/>
      <point x="459" y="646" type="line"/>
    </contour>
  </outline>
</glyph>
<glyph name="less" format="2">
  <advance width="578"/>
  <unicode hex="003C"/>
  <outline>
    <contour>
      <point x="64" y="312" type="line"/>
      <point x="64" y="358" type="line"/>
      <point x="490" y="562" type="line"/>
      <point x="508" y="525" type="line"/>
      <point x="103" y="335" type="line"/>
      <point x="508" y="145" type="line"/>
      <point x="490" y="108" type="line"/>
    </contour>
  </outline>
</glyph>
<glyph name="equal" format="2">
  <advance width="578"/>
  <unicode hex="003D"/>
  <outline>
    <contour>
      <point x="66" y="204" type="line"/>
      <point x="66" y="246" type="line"/>
      <point x="512" y="246" type="line"/>
      <point x="512" y="204" type="line"/>
    </contour>
    <contour>
      <point x="66" y="424" type="line"/>
      <point x="66" y="466" type="line"/>
      <point x="512" y="466" type="line"/>
      <point x="512" y="424" type="line"/>
    </contour>
  </outline>
</glyph>
<glyph name="greater" format="2">
  <advance width="578"/>
  <unicode hex="003E"/>
  <outline>
    <contour>
      <point x="70" y="145" type="line"/>
      <point x="475" y="335" type="line"/>
      <point x="70" y="525" type="line"/>
      <point x="88" y="562" type="line"/>
      <point x="514" y="358" type="line"/>
      <point x="514" y="312" type="line"/>
      <point x="88" y="108" type="line"/>
    </contour>
  </outline>
</glyph>
<glyph name="F" format="2">
  <advance width="562"/>
  <unicode hex="0046"/>
  <outline>
    <contour>
      <point x="95" y="0" type="line"/>
      <point x="95" y="690" type="line"/>
      <point x="532" y="690" type="line"/>
      <point x="532" y="646" type="line"/>
      <point x="143" y="646" type="line"/>
      <point x="143" y="358" type="line"/>
      <point x="502" y="358" type="line"/>
      <point x="502" y="314" type="line"/>
      <point x="143" y="314" type="line"/>
      <point x="143" y="0" type="line"/>
    </contour>
  </outline>
</glyph>
<glyph name="K" format="2">
  <advance width="605"/>
  <unicode hex="004B"/>
  <outline>
    <contour>
      <point x="95" y="0" type="line"/>
      <point x="95" y="690" type="line"/>
      <point x="143" y="690" type="line"/>
      <point x="143" y="287" type="line"/>
      <point x="504" y="690" type="line"/>
      <point x="546" y="690" type="line"/>
      <point x="552" y="677" type="line"/>
      <point x="308" y="406" type="line"/>
      <point x="574" y="13" type="line"/>
      <point x="568" y="0" type="line"/>
      <point x="524" y="0" type="line"/>
      <point x="276" y="371" type="line"/>
      <point x="143" y="223" type="line"/>
      <point x="143" y="0" type="line"/>
    </contour>
  </outline>
</glyph>
<glyph name="M" format="2">
  <advance width="843"/>
  <unicode hex="004D"/>
  <outline>
    <contour>
      <point x="95" y="0" type="line"/>
      <point x="95" y="690" type="line"/>
      <point x="169" y="690" type="line"/>
      <point x="422" y="154" type="line"/>
      <point x="674" y="690" type="line"/>
      <point x="748" y="690" type="line"/>
      <point x="748" y="0" type="line"/>
      <point x="700" y="0" type="line"/>
      <point x="700" y="641" type="line"/>
      <point x="449" y="106" type="line"/>
      <point x="394" y="106" type="line"/>
      <point x="143" y="641" type="line"/>
      <point x="143" y="0" type="line"/>
    </contour>
  </outline>
</glyph>
<glyph name="N" format="2">
  <advance width="709"/>
  <unicode hex="004E"/>
  <outline>
    <contour>
      <point x="95" y="0" type="line"/>
      <point x="95" y="690" type="line"/>
      <point x="150" y="690" type="line"/>
      <point x="566" y="66" type="line"/>
      <point x="566" y="690" type="line"/>
      <point x="614" y="690" type="line"/>
      <point x="614" y="0" type="line"/>
      <point x="559" y="0" type="line"/>
      <point x="143" y="624" type="line"/>
      <point x="143" y="0" type="line"/>
    </contour>
  </outline>
</glyph>
<glyph name="R" format="2">
  <advance width="635"/>
  <unicode hex="0052"/>
  <outline>
    <contour>
      <point x="95" y="0" type="line"/>
      <point x="95" y="690" type="line"/>
      <point x="416" y="690" type="line" smooth="yes"/>
      <point x="560" y="690"/>
      <point x="560" y="546" type="qcurve" smooth="yes"/>
      <point x="560" y="438" type="line" smooth="yes"/>
      <point x="560" y="305"/>
      <point x="438" y="295" type="qcurve"/>
      <point x="580" y="14" type="line"/>
      <point x="573" y="0" type="line"/>
      <point x="534" y="0" type="line"/>
      <point x="385" y="294" type="line"/>
      <point x="143" y="294" type="line"/>
      <point x="143" y="0" type="line"/>
    </contour>
    <contour>
      <point x="143" y="338" type="line"/>
      <point x="422" y="338" type="line" smooth="yes"/>
      <point x="512" y="338"/>
      <point x="512" y="429" type="qcurve" smooth="yes"/>
      <point x="512" y="556" type="line" smooth="yes"/>
      <point x="512" y="646"/>
      <point x="422" y="646" type="qcurve" smooth="yes"/>
      <point x="143" y="646" type="line"/>
    </contour>
  </outline>
</glyph>
<glyph name="S" format="2">
  <advance width="575"/>
  <unicode hex="0053"/>
  <outline>
    <contour>
      <point x="65" y="25" type="line"/>
      <point x="65" y="44" type="line"/>
      <point x="372" y="44" type="line" smooth="yes"/>
      <point x="462" y="44"/>
      <point x="462" y="134" type="qcurve" smooth="yes"/>
      <point x="462" y="221" type="line" smooth="yes"/>
      <point x="462" y="295"/>
      <point x="396" y="308" type="qcurve" smooth="yes"/>
      <point x="169" y="354" type="line" smooth="yes"/>
      <point x="65" y="375"/>
      <point x="65" y="494" type="qcurve" smooth="yes"/>
      <point x="65" y="546" type="line" smooth="yes"/>
      <point x="65" y="690"/>
      <point x="209" y="690" type="qcurve" smooth="yes"/>
      <point x="459" y="690" type="line"/>
      <point x="490" y="665" type="line"/>
      <point x="490" y="646" type="line"/>
      <point x="204" y="646" type="line" smooth="yes"/>
      <point x="113" y="646"/>
      <point x="113" y="556" type="qcurve" smooth="yes"/>
      <point x="113" y="486" type="line" smooth="yes"/>
      <point x="113" y="411"/>
      <point x="179" y="398" type="qcurve" smooth="yes"/>
      <point x="406" y="353" type="line" smooth="yes"/>
      <point x="510" y="332"/>
      <point x="510" y="213" type="qcurve" smooth="yes"/>
      <point x="510" y="144" type="line" smooth="yes"/>
      <point x="510" y="0"/>
      <point x="366" y="0" type="qcurve" smooth="yes"/>
      <point x="97" y="0" type="line"/>
    </contour>
  </outline>
</glyph>
<glyph name="bracketright" format="2">
  <advance width="315"/>
  <unicode hex="005D"/>
  <outline>
    <contour>
      <point x="30" y="-140" type="line"/>
      <point x="175" y="-140" type="line"/>
      <point x="175" y="720" type="line"/>
      <point x="30" y="720" type="line"/>
      <point x="30" y="760" type="line"/>
      <point x="220" y="760" type="line"/>
      <point x="220" y="-180" type="line"/>
      <point x="30" y="-180" type="line"/>
    </contour>
  </outline>
</glyph>
<glyph name="asciicircum" format="2">
  <advance width="526"/>
  <unicode hex="005E"/>
  <outline>
    <contour>
      <point x="45" y="338" type="line"/>
      <point x="240" y="690" type="line"/>
      <point x="286" y="690" type="line"/>
      <point x="481" y="338" type="line"/>
      <point x="443" y="317" type="line"/>
      <point x="263" y="646" type="line"/>
      <point x="83" y="317" type="line"/>
    </contour>
  </outline>
</glyph>
<glyph name="a" format="2">
  <advance width="537"/>
  <unicode hex="0061"/>
  <outline>
    <contour>
      <point x="201" y="0" type="line" smooth="yes"/>
      <point x="57" y="0"/>
      <point x="57" y="292"/>
      <point x="201" y="292" type="qcurve" smooth="yes"/>
      <point x="411" y="292" type="line"/>
      <point x="411" y="382" type="line" smooth="yes"/>
      <point x="411" y="475"/>
      <point x="318" y="475" type="qcurve" smooth="yes"/>
      <point x="103" y="475" type="line"/>
      <point x="103" y="494" type="line"/>
      <point x="131" y="515" type="line"/>
      <point x="314" y="515" type="line" smooth="yes"/>
      <point x="456" y="515"/>
      <point x="456" y="372" type="qcurve" smooth="yes"/>
      <point x="456" y="0" type="line"/>
    </contour>
    <contour>
      <point x="102" y="133" type="line" smooth="yes"/>
      <point x="102" y="40"/>
      <point x="195" y="40" type="qcurve" smooth="yes"/>
      <point x="411" y="40" type="line"/>
      <point x="411" y="252" type="line"/>
      <point x="195" y="252" type="line" smooth="yes"/>
      <point x="102" y="252"/>
      <point x="102" y="159" type="qcurve" smooth="yes"/>
    </contour>
  </outline>
</glyph>
<glyph name="c" format="2">
  <advance width="496"/>
  <unicode hex="0063"/>
  <outline>
    <contour>
      <point x="77" y="143" type="qcurve" smooth="yes"/>
      <point x="77" y="372" type="line" smooth="yes"/>
      <point x="77" y="515"/>
      <point x="220" y="515" type="qcurve" smooth="yes"/>
      <point x="422" y="515" type="line"/>
      <point x="450" y="494" type="line"/>
      <point x="450" y="475" type="line"/>
      <point x="215" y="475" type="line" smooth="yes"/>
      <point x="122" y="475"/>
      <point x="122" y="382" type="qcurve" smooth="yes"/>
      <point x="122" y="133" type="line" smooth="yes"/>
      <point x="122" y="40"/>
      <point x="215" y="40" type="qcurve" smooth="yes"/>
      <point x="450" y="40" type="line"/>
      <point x="450" y="21" type="line"/>
      <point x="422" y="0" type="line"/>
      <point x="220" y="0" type="line" smooth="yes"/>
      <point x="77" y="0"/>
    </contour>
  </outline>
</glyph>
<glyph name="j" format="2">
  <advance width="215"/>
  <unicode hex="006A"/>
  <outline>
    <contour>
      <point x="-7" y="-168" type="line"/>
      <point x="85" y="-166"/>
      <point x="85" y="-74" type="qcurve" smooth="yes"/>
      <point x="85" y="515" type="line"/>
      <point x="130" y="515" type="line"/>
      <point x="130" y="-70" type="line" smooth="yes"/>
      <point x="130" y="-207"/>
      <point x="-7" y="-207" type="qcurve"/>
    </contour>
    <contour>
      <point x="80" y="618" type="line"/>
      <point x="80" y="687" type="line"/>
      <point x="135" y="687" type="line"/>
      <point x="135" y="618" type="line"/>
    </contour>
  </outline>
</glyph>
<glyph name="k" format="2">
  <advance width="497"/>
  <unicode hex="006B"/>
  <outline>
    <contour>
      <point x="85" y="0" type="line"/>
      <point x="85" y="740" type="line"/>
      <point x="130" y="740" type="line"/>
      <point x="130" y="211" type="line"/>
      <point x="406" y="515" type="line"/>
      <point x="449" y="515" type="line"/>
      <point x="454" y="505" type="line"/>
      <point x="266" y="298" type="line"/>
      <point x="468" y="10" type="line"/>
      <point x="463" y="0" type="line"/>
      <point x="419" y="0" type="line"/>
      <point x="236" y="265" type="line"/>
      <point x="130" y="151" type="line"/>
      <point x="130" y="0" type="line"/>
    </contour>
  </outline>
</glyph>
<glyph name="o" format="2">
  <advance width="579"/>
  <unicode hex="006F"/>
  <outline>
    <contour>
      <point x="77" y="143" type="qcurve" smooth="yes"/>
      <point x="77" y="372" type="line" smooth="yes"/>
      <point x="77" y="515"/>
      <point x="220" y="515" type="qcurve" smooth="yes"/>
      <point x="360" y="515" type="line" smooth="yes"/>
      <point x="502" y="515"/>
      <point x="502" y="372" type="qcurve" smooth="yes"/>
      <point x="502" y="143" type="line" smooth="yes"/>
      <point x="502" y="0"/>
      <point x="360" y="0" type="qcurve" smooth="yes"/>
      <point x="220" y="0" type="line" smooth="yes"/>
      <point x="77" y="0"/>
    </contour>
    <contour>
      <point x="122" y="133" type="line" smooth="yes"/>
      <point x="122" y="40"/>
      <point x="215" y="40" type="qcurve" smooth="yes"/>
      <point x="364" y="40" type="line" smooth="yes"/>
      <point x="457" y="40"/>
      <point x="457" y="133" type="qcurve" smooth="yes"/>
      <point x="457" y="382" type="line" smooth="yes"/>
      <point x="457" y="475"/>
      <point x="364" y="475" type="qcurve" smooth="yes"/>
      <point x="215" y="475" type="line" smooth="yes"/>
      <point x="122" y="475"/>
      <point x="122" y="382" type="qcurve" smooth="yes"/>
    </contour>
  </outline>
</glyph>
<glyph name="p" format="2">
  <advance width="577"/>
  <unicode hex="0070"/>
  <outline>
    <contour>
      <point x="85" y="-200" type="line"/>
      <point x="85" y="515" type="line"/>
      <point x="358" y="515" type="line" smooth="yes"/>
      <point x="500" y="515"/>
      <point x="500" y="372" type="qcurve" smooth="yes"/>
      <point x="500" y="143" type="line" smooth="yes"/>
      <point x="500" y="0"/>
      <point x="358" y="0" type="qcurve" smooth="yes"/>
      <point x="130" y="0" type="line"/>
      <point x="130" y="-200" type="line"/>
    </contour>
    <contour>
      <point x="130" y="40" type="line"/>
      <point x="362" y="40" type="line" smooth="yes"/>
      <point x="455" y="40"/>
      <point x="455" y="133" type="qcurve" smooth="yes"/>
      <point x="455" y="382" type="line" smooth="yes"/>
      <point x="455" y="475"/>
      <point x="362" y="475" type="qcurve" smooth="yes"/>
      <point x="130" y="475" type="line"/>
    </contour>
  </outline>
</glyph>
<glyph name="t" format="2">
  <advance width="373"/>
  <unicode hex="0074"/>
  <outline>
    <contour>
      <point x="81" y="143" type="qcurve" smooth="yes"/>
      <point x="81" y="690" type="line"/>
      <point x="126" y="690" type="line"/>
      <point x="126" y="515" type="line"/>
      <point x="327" y="515" type="line"/>
      <point x="327" y="475" type="line"/>
      <point x="126" y="475" type="line"/>
      <point x="126" y="133" type="line" smooth="yes"/>
      <point x="126" y="40"/>
      <point x="219" y="40" type="qcurve" smooth="yes"/>
      <point x="337" y="40" type="line"/>
      <point x="337" y="21" type="line"/>
      <point x="309" y="0" type="line"/>
      <point x="224" y="0" type="line" smooth="yes"/>
      <point x="81" y="0"/>
    </contour>
  </outline>
</glyph>
<glyph name="y" format="2">
  <advance width="498"/>
  <unicode hex="0079"/>
  <outline>
    <contour>
      <point x="21" y="505" type="line"/>
      <point x="27" y="515" type="line"/>
      <point x="66" y="515" type="line"/>
      <point x="236" y="40" type="line"/>
      <point x="262" y="40" type="line"/>
      <point x="432" y="515" type="line"/>
      <point x="471" y="515" type="line"/>
      <point x="477" y="505" type="line"/>
      <point x="219" y="-200" type="line"/>
      <point x="180" y="-200" type="line"/>
      <point x="174" y="-190" type="line"/>
      <point x="246" y="0" type="line"/>
      <point x="206" y="0" type="line"/>
    </contour>
  </outline>
</glyph>
<glyph name="exclamdown" format="2">
  <advance width="249"/>
  <unicode hex="00A1"/>
  <outline>
    <contour>
      <point x="92" y="430" type="line"/>
      <point x="92" y="515" type="line"/>
      <point x="158" y="515" type="line"/>
      <point x="158" y="430" type="line"/>
    </contour>
    <contour>
      <point x="101" y="-175" type="line"/>
      <point x="101" y="312" type="line"/>
      <point x="149" y="312" type="line"/>
      <point x="149" y="-175" type="line"/>
    </contour>
  </outline>
</glyph>
<glyph name="yen" format="2">
  <advance width="578"/>
  <unicode hex="00A5"/>
  <outline>
    <contour>
      <point x="43" y="677" type="line"/>
      <point x="50" y="690" type="line"/>
      <point x="90" y="690" type="line"/>
      <point x="289" y="327" type="line"/>
      <point x="488" y="690" type="line"/>
      <point x="528" y="690" type="line"/>
      <point x="535" y="677" type="line"/>
      <point x="326" y="306" type="line"/>
      <point x="475" y="306" type="line"/>
      <point x="475" y="265" type="line"/>
      <point x="313" y="265" type="line"/>
      <point x="313" y="175" type="line"/>
      <point x="475" y="175" type="line"/>
      <point x="475" y="134" type="line"/>
      <point x="313" y="134" type="line"/>
      <point x="313" y="0" type="line"/>
      <point x="265" y="0" type="line"/>
      <point x="265" y="134" type="line"/>
      <point x="103" y="134" type="line"/>
      <point x="103" y="175" type="line"/>
      <point x="265" y="175" type="line"/>
      <point x="265" y="265" type="line"/>
      <point x="103" y="265" type="line"/>
      <point x="103" y="306" type="line"/>
      <point x="252" y="306" type="line"/>
    </contour>
  </outline>
</glyph>
<glyph name="brokenbar" format="2">
  <advance width="251"/>
  <unicode hex="00A6"/>
  <outline>
    <contour>
      <point x="104" y="166" type="line"/>
      <point x="148" y="166" type="line"/>
      <point x="148" y="-200" type="line"/>
      <point x="104" y="-200" type="line"/>
    </contour>
    <contour>
      <point x="104" y="374" type="line"/>
      <point x="104" y="740" type="line"/>
      <point x="148" y="740" type="line"/>
      <point x="148" y="374" type="line"/>
    </contour>
  </outline>
</glyph>
<glyph name="section" format="2">
  <advance width="538"/>
  <unicode hex="00A7"/>
  <outline>
    <contour>
      <point x="86" y="-60" type="line"/>
      <point x="312" y="-60" type="line" smooth="yes"/>
      <point x="406" y="-60"/>
      <point x="406" y="29" type="qcurve" smooth="yes"/>
      <point x="406" y="97"/>
      <point x="366" y="107" type="qcurve" smooth="yes"/>
      <point x="178" y="154" type="line" smooth="yes"/>
      <point x="86" y="177"/>
      <point x="86" y="282" type="qcurve" smooth="yes"/>
      <point x="86" y="435" type="line"/>
      <point x="115" y="464" type="line"/>
      <point x="86" y="495"/>
      <point x="86" y="555" type="qcurve" smooth="yes"/>
      <point x="86" y="690"/>
      <point x="225" y="690" type="qcurve" smooth="yes"/>
      <point x="401" y="690" type="line"/>
      <point x="429" y="669" type="line"/>
      <point x="429" y="650" type="line"/>
      <point x="226" y="650" type="line" smooth="yes"/>
      <point x="132" y="650"/>
      <point x="132" y="561" type="qcurve" smooth="yes"/>
      <point x="132" y="493"/>
      <point x="172" y="483" type="qcurve" smooth="yes"/>
      <point x="360" y="436" type="line" smooth="yes"/>
      <point x="452" y="413"/>
      <point x="452" y="308" type="qcurve" smooth="yes"/>
      <point x="452" y="155" type="line"/>
      <point x="423" y="126" type="line"/>
      <point x="452" y="95"/>
      <point x="452" y="35" type="qcurve" smooth="yes"/>
      <point x="452" y="-100"/>
      <point x="313" y="-100" type="qcurve" smooth="yes"/>
      <point x="114" y="-100" type="line"/>
      <point x="86" y="-79" type="line"/>
    </contour>
    <contour>
      <point x="132" y="285" type="line" smooth="yes"/>
      <point x="132" y="213"/>
      <point x="194" y="197" type="qcurve" smooth="yes"/>
      <point x="406" y="144" type="line"/>
      <point x="406" y="305" type="line" smooth="yes"/>
      <point x="406" y="377"/>
      <point x="344" y="393" type="qcurve" smooth="yes"/>
      <point x="132" y="446" type="line"/>
    </contour>
  </outline>
</glyph>
<glyph name="ordfeminine" format="2">
  <advance width="398"/>
  <unicode hex="00AA"/>
  <outline>
    <contour>
      <point x="44" y="388" type="qcurve" smooth="yes"/>
      <point x="44" y="439" type="line" smooth="yes"/>
      <point x="44" y="525"/>
      <point x="130" y="525" type="qcurve" smooth="yes"/>
      <point x="306" y="525" type="line"/>
      <point x="306" y="610" type="line" smooth="yes"/>
      <point x="306" y="656"/>
      <point x="260" y="656" type="qcurve" smooth="yes"/>
      <point x="69" y="656" type="line"/>
      <point x="69" y="672" type="line"/>
      <point x="92" y="690" type="line"/>
      <point x="258" y="690" type="line" smooth="yes"/>
      <point x="344" y="690"/>
      <point x="344" y="604" type="qcurve" smooth="yes"/>
      <point x="344" y="302" type="line"/>
      <point x="130" y="302" type="line" smooth="yes"/>
      <point x="44" y="302"/>
    </contour>
    <contour>
      <point x="81" y="382" type="line" smooth="yes"/>
      <point x="81" y="336"/>
      <point x="127" y="336" type="qcurve" smooth="yes"/>
      <point x="306" y="336" type="line"/>
      <point x="306" y="491" type="line"/>
      <point x="127" y="491" type="line" smooth="yes"/>
      <point x="81" y="491"/>
      <point x="81" y="445" type="qcurve" smooth="yes"/>
    </contour>
  </outline>
</glyph>
<glyph name="mu" format="2">
  <advance width="581"/>
  <unicode hex="00B5"/>
  <outline>
    <contour>
      <point x="85" y="-200" type="line"/>
      <point x="85" y="515" type="line"/>
      <point x="130" y="515" type="line"/>
      <point x="130" y="40" type="line"/>
      <point x="362" y="40" type="line" smooth="yes"/>
      <point x="455" y="40"/>
      <point x="455" y="133" type="qcurve" smooth="yes"/>
      <point x="455" y="515" type="line"/>
      <point x="500" y="515" type="line"/>
      <point x="500" y="143" type="line" smooth="yes"/>
      <point x="500" y="0"/>
      <point x="358" y="0" type="qcurve" smooth="yes"/>
      <point x="130" y="0" type="line"/>
      <point x="130" y="-200" type="line"/>
    </contour>
  </outline>
</glyph>
<glyph name="paragraph" format="2">
  <advance width="537"/>
  <unicode hex="00B6"/>
  <outline>
    <contour>
      <point x="75" y="408" type="qcurve" smooth="yes"/>
      <point x="75" y="540" type="line" smooth="yes"/>
      <point x="75" y="690"/>
      <point x="225" y="690" type="qcurve" smooth="yes"/>
      <point x="317" y="690" type="line"/>
      <point x="317" y="258" type="line"/>
      <point x="225" y="258" type="line" smooth="yes"/>
      <point x="75" y="258"/>
    </contour>
    <contour>
      <point x="387" y="-170" type="line"/>
      <point x="387" y="690" type="line"/>
      <point x="432" y="690" type="line"/>
      <point x="432" y="-170" type="line"/>
    </contour>
  </outline>
</glyph>
<glyph name="AE" format="2">
  <advance width="867"/>
  <unicode hex="00C6"/>
  <outline>
    <contour>
      <point x="21" y="13" type="line"/>
      <point x="260" y="690" type="line"/>
      <point x="817" y="690" type="line"/>
      <point x="817" y="646" type="line"/>
      <point x="469" y="646" type="line"/>
      <point x="469" y="388" type="line"/>
      <point x="787" y="388" type="line"/>
      <point x="787" y="344" type="line"/>
      <point x="469" y="344" type="line"/>
      <point x="469" y="44" type="line"/>
      <point x="817" y="44" type="line"/>
      <point x="817" y="0" type="line"/>
      <point x="421" y="0" type="line"/>
      <point x="421" y="194" type="line"/>
      <point x="134" y="194" type="line"/>
      <point x="68" y="0" type="line"/>
      <point x="30" y="0" type="line"/>
    </contour>
    <contour>
      <point x="151" y="238" type="line"/>
      <point x="421" y="238" type="line"/>
      <point x="421" y="646" type="line"/>
      <point x="290" y="646" type="line"/>
    </contour>
  </outline>
</glyph>
<glyph name="Lslash" format="2">
  <advance width="524"/>
  <unicode hex="0141"/>
  <outline>
    <contour>
      <point x="10" y="272" type="line"/>
      <point x="93" y="320" type="line"/>
      <point x="93" y="690" type="line"/>
      <point x="141" y="690" type="line"/>
      <point x="141" y="347" type="line"/>
      <point x="290" y="433" type="line"/>
      <point x="309" y="400" type="line"/>
      <point x="141" y="304" type="line"/>
      <point x="141" y="44" type="line"/>
      <point x="500" y="44" type="line"/>
      <point x="500" y="0" type="line"/>
      <point x="93" y="0" type="line"/>
      <point x="93" y="276" type="line"/>
      <point x="29" y="239" type="line"/>
    </contour>
  </outline>
</glyph>
<glyph name="OE" format="2">
  <advance width="954"/>
  <unicode hex="0152"/>
  <outline>
    <contour>
      <point x="85" y="144" type="qcurve" smooth="yes"/>
      <point x="85" y="546" type="line" smooth="yes"/>
      <point x="85" y="690"/>
      <point x="229" y="690" type="qcurve" smooth="yes"/>
      <point x="904" y="690" type="line"/>
      <point x="904" y="646" type="line"/>
      <point x="556" y="646" type="line"/>
      <point x="556" y="388" type="line"/>
      <point x="874" y="388" type="line"/>
      <point x="874" y="344" type="line"/>
      <point x="556" y="344" type="line"/>
      <point x="556" y="44" type="line"/>
      <point x="904" y="44" type="line"/>
      <point x="904" y="0" type="line"/>
      <point x="229" y="0" type="line" smooth="yes"/>
      <point x="85" y="0"/>
    </contour>
    <contour>
      <point x="133" y="134" type="line" smooth="yes"/>
      <point x="133" y="44"/>
      <point x="224" y="44" type="qcurve" smooth="yes"/>
      <point x="508" y="44" type="line"/>
      <point x="508" y="646" type="line"/>
      <point x="224" y="646" type="line" smooth="yes"/>
      <point x="133" y="646"/>
      <point x="133" y="556" type="qcurve" smooth="yes"/>
    </contour>
  </outline>
</glyph>
<glyph name="uni1E9E" format="2">
  <advance width="673"/>
  <unicode hex="1E9E"/>
  <outline>
    <contour>
      <point x="89" y="0" type="line"/>
      <point x="89" y="546" type="line" smooth="yes"/>
      <point x="89" y="690"/>
      <point x="233" y="690" type="qcurve" smooth="yes"/>
      <point x="554" y="690" type="line"/>
      <point x="554" y="650" type="line"/>
      <point x="353" y="388" type="line"/>
      <point x="464" y="388" type="line" smooth="yes"/>
      <point x="608" y="388"/>
      <point x="608" y="244" type="qcurve" smooth="yes"/>
      <point x="608" y="144" type="line" smooth="yes"/>
      <point x="608" y="0"/>
      <point x="464" y="0" type="qcurve" smooth="yes"/>
      <point x="297" y="0" type="line"/>
      <point x="266" y="25" type="line"/>
      <point x="266" y="44" type="line"/>
      <point x="470" y="44" type="line" smooth="yes"/>
      <point x="560" y="44"/>
      <point x="560" y="134" type="qcurve" smooth="yes"/>
      <point x="560" y="254" type="line" smooth="yes"/>
      <point x="560" y="344"/>
      <point x="470" y="344" type="qcurve" smooth="yes"/>
      <point x="292" y="344" type="line"/>
      <point x="292" y="384" type="line"/>
      <point x="493" y="646" type="line"/>
      <point x="228" y="646" type="line" smooth="yes"/>
      <point x="137" y="646"/>
      <point x="137" y="556" type="qcurve" smooth="yes"/>
      <point x="137" y="0" type="line"/>
    </contour>
  </outline>
</glyph>
<glyph name="endash" format="2">
  <advance width="580"/>
  <unicode hex="2013"/>
  <outline>
    <contour>
      <point x="40" y="284" type="line"/>
      <point x="40" y="326" type="line"/>
      <point x="540" y="326" type="line"/>
      <point x="540" y="284" type="line"/>
    </contour>
  </outline>
</glyph>
<glyph name="quoteleft" format="2">
  <advance width="249"/>
  <unicode hex="2018"/>
  <outline>
    <contour>
      <point x="78" y="534" type="line"/>
      <point x="156" y="744" type="line"/>
      <point x="191" y="736" type="line"/>
      <point x="132" y="524" type="line"/>
      <point x="84" y="524" type="line"/>
    </contour>
  </outline>
</glyph>
<glyph name="uni20BD" format="2">
  <advance width="578"/>
  <unicode hex="20BD"/>
  <outline>
    <contour>
      <point x="51" y="210" type="line"/>
      <point x="51" y="247" type="line"/>
      <point x="101" y="247" type="line"/>
      <point x="101" y="325" type="line"/>
      <point x="51" y="325" type="line"/>
      <point x="51" y="365" type="line"/>
      <point x="101" y="365" type="line"/>
      <point x="101" y="690" type="line"/>
      <point x="373" y="690" type="line" smooth="yes"/>
      <point x="517" y="690"/>
      <point x="517" y="546" type="qcurve" smooth="yes"/>
      <point x="517" y="469" type="line" smooth="yes"/>
      <point x="517" y="325"/>
      <point x="373" y="325" type="qcurve" smooth="yes"/>
      <point x="149" y="325" type="line"/>
      <point x="149" y="247" type="line"/>
      <point x="391" y="247" type="line"/>
      <point x="391" y="210" type="line"/>
      <point x="149" y="210" type="line"/>
      <point x="149" y="0" type="line"/>
      <point x="101" y="0" type="line"/>
      <point x="101" y="210" type="line"/>
    </contour>
    <contour>
      <point x="149" y="365" type="line"/>
      <point x="378" y="365" type="line" smooth="yes"/>
      <point x="469" y="365"/>
      <point x="469" y="456" type="qcurve" smooth="yes"/>
      <point x="469" y="556" type="line" smooth="yes"/>
      <point x="469" y="646"/>
      <point x="378" y="646" type="qcurve" smooth="yes"/>
      <point x="149" y="646" type="line"/>
    </contour>
  </outline>
</glyph>
<glyph name="Delta" format="2">
  <advance width="618"/>
  <unicode hex="2206"/>
  <outline>
    <contour>
      <point x="21" y="13" type="line"/>
      <point x="268" y="690" type="line"/>
      <point x="351" y="690" type="line"/>
      <point x="597" y="13" type="line"/>
      <point x="589" y="0" type="line"/>
      <point x="30" y="0" type="line"/>
    </contour>
    <contour>
      <point x="84" y="44" type="line"/>
      <point x="535" y="44" type="line"/>
      <point x="321" y="646" type="line"/>
      <point x="298" y="646" type="line"/>
    </contour>
  </outline>
</glyph>
<glyph name="product" format="2">
  <advance width="695"/>
  <unicode hex="220F"/>
  <outline>
    <contour>
      <point x="95" y="-100" type="line"/>
      <point x="95" y="690" type="line"/>
      <point x="600" y="690" type="line"/>
      <point x="600" y="-100" type="line"/>
      <point x="552" y="-100" type="line"/>
      <point x="552" y="646" type="line"/>
      <point x="143" y="646" type="line"/>
      <point x="143" y="-100" type="line"/>
    </contour>
  </outline>
</glyph>
<glyph name="minus" format="2">
  <advance width="578"/>
  <unicode hex="2212"/>
  <outline>
    <contour>
      <point x="66" y="314" type="line"/>
      <point x="66" y="356" type="line"/>
      <point x="512" y="356" type="line"/>
      <point x="512" y="314" type="line"/>
    </contour>
  </outline>
</glyph>
<glyph name="lozenge" format="2">
  <advance width="578"/>
  <unicode hex="25CA"/>
  <outline>
    <contour>
      <point x="69" y="345" type="line"/>
      <point x="267" y="690" type="line"/>
      <point x="311" y="690" type="line"/>
      <point x="509" y="345" type="line"/>
      <point x="311" y="0" type="line"/>
      <point x="267" y="0" type="line"/>
    </contour>
    <contour>
      <point x="113" y="345" type="line"/>
      <point x="289" y="38" type="line"/>
      <point x="465" y="345" type="line"/>
      <point x="289" y="652" type="line"/>
    </contour>
  </outline>
</glyph>
<glyph name="uni0326.alt" format="2">
  <advance width="0"/>
  <outline>
    <contour>
      <point x="-21" y="599" type="line"/>
      <point x="35" y="736" type="line"/>
      <point x="69" y="726" type="line"/>
      <point x="36" y="589" type="line"/>
      <point x="-15" y="589" type="line"/>
    </contour>
  </outline>
</glyph>
<glyph name="zero.zero" format="2">
  <advance width="578"/>
  <outline>
    <contour>
      <point x="71" y="144" type="qcurve" smooth="yes"/>
      <point x="71" y="546" type="line" smooth="yes"/>
      <point x="71" y="690"/>
      <point x="215" y="690" type="qcurve" smooth="yes"/>
      <point x="363" y="690" type="line" smooth="yes"/>
      <point x="507" y="690"/>
      <point x="507" y="546" type="qcurve" smooth="yes"/>
      <point x="507" y="144" type="line" smooth="yes"/>
      <point x="507" y="0"/>
      <point x="363" y="0" type="qcurve" smooth="yes"/>
      <point x="215" y="0" type="line" smooth="yes"/>
      <point x="71" y="0"/>
    </contour>
    <contour>
      <point x="119" y="134" type="line" smooth="yes"/>
      <point x="119" y="44"/>
      <point x="210" y="44" type="qcurve" smooth="yes"/>
      <point x="368" y="44" type="line" smooth="yes"/>
      <point x="459" y="44"/>
      <point x="459" y="134" type="qcurve" smooth="yes"/>
      <point x="459" y="556" type="line" smooth="yes"/>
      <point x="459" y="646"/>
      <point x="368" y="646" type="qcurve" smooth="yes"/>
      <point x="210" y="646" type="line" smooth="yes"/>
      <point x="119" y="646"/>
      <point x="119" y="556" type="qcurve" smooth="yes"/>
    </contour>
    <contour>
      <point x="253" y="290" type="line"/>
      <point x="253" y="400" type="line"/>
      <point x="325" y="400" type="line"/>
      <point x="325" y="290" type="line"/>
    </contour>
  </outline>
</glyph>
